<mxfile host="app.diagrams.net" modified="2022-05-30T06:53:08.007Z" agent="5.0 (Windows NT 10.0; Win64; x64) AppleWebKit/537.36 (KHTML, like Gecko) Chrome/101.0.4951.67 Safari/537.36" etag="cCxoRsdQfuWisB9uT8fy" version="18.1.3" type="github">
  <diagram name="Page-1" id="c37626ed-c26b-45fb-9056-f9ebc6bb27b6">
    <mxGraphModel dx="1422" dy="762" grid="1" gridSize="10" guides="1" tooltips="1" connect="1" arrows="1" fold="1" page="1" pageScale="1" pageWidth="1100" pageHeight="850" background="none" math="0" shadow="0">
      <root>
        <mxCell id="0" />
        <mxCell id="1" parent="0" />
        <mxCell id="pluuzzdWv0u-dCmCV5vT-9" style="edgeStyle=none;rounded=0;orthogonalLoop=1;jettySize=auto;html=1;exitX=0.5;exitY=0;exitDx=0;exitDy=0;exitPerimeter=0;" edge="1" parent="1" source="pluuzzdWv0u-dCmCV5vT-1" target="pluuzzdWv0u-dCmCV5vT-6">
          <mxGeometry relative="1" as="geometry" />
        </mxCell>
        <mxCell id="pluuzzdWv0u-dCmCV5vT-1" value="kong" style="shape=mxgraph.cisco.servers.fileserver;sketch=0;html=1;pointerEvents=1;dashed=0;fillColor=#036897;strokeColor=#ffffff;strokeWidth=2;verticalLabelPosition=bottom;verticalAlign=top;align=center;outlineConnect=0;" vertex="1" parent="1">
          <mxGeometry x="420" y="425" width="43" height="62" as="geometry" />
        </mxCell>
        <mxCell id="pluuzzdWv0u-dCmCV5vT-7" style="rounded=0;orthogonalLoop=1;jettySize=auto;html=1;exitX=0.5;exitY=0;exitDx=0;exitDy=0;entryX=0.5;entryY=1;entryDx=0;entryDy=0;entryPerimeter=0;" edge="1" parent="1" source="pluuzzdWv0u-dCmCV5vT-2" target="pluuzzdWv0u-dCmCV5vT-1">
          <mxGeometry relative="1" as="geometry" />
        </mxCell>
        <mxCell id="pluuzzdWv0u-dCmCV5vT-2" value="rbac" style="rounded=0;whiteSpace=wrap;html=1;" vertex="1" parent="1">
          <mxGeometry x="430" y="590" width="60" height="30" as="geometry" />
        </mxCell>
        <mxCell id="pluuzzdWv0u-dCmCV5vT-8" style="edgeStyle=none;rounded=0;orthogonalLoop=1;jettySize=auto;html=1;exitX=0.5;exitY=0;exitDx=0;exitDy=0;entryX=0.5;entryY=1;entryDx=0;entryDy=0;entryPerimeter=0;" edge="1" parent="1" source="pluuzzdWv0u-dCmCV5vT-3" target="pluuzzdWv0u-dCmCV5vT-1">
          <mxGeometry relative="1" as="geometry" />
        </mxCell>
        <mxCell id="pluuzzdWv0u-dCmCV5vT-3" value="activiti" style="rounded=0;whiteSpace=wrap;html=1;" vertex="1" parent="1">
          <mxGeometry x="530" y="590" width="60" height="30" as="geometry" />
        </mxCell>
        <mxCell id="pluuzzdWv0u-dCmCV5vT-4" value="psc" style="rounded=0;whiteSpace=wrap;html=1;" vertex="1" parent="1">
          <mxGeometry x="630" y="590" width="60" height="30" as="geometry" />
        </mxCell>
        <mxCell id="pluuzzdWv0u-dCmCV5vT-5" value="psc-web" style="rounded=0;whiteSpace=wrap;html=1;" vertex="1" parent="1">
          <mxGeometry x="730" y="590" width="60" height="30" as="geometry" />
        </mxCell>
        <mxCell id="pluuzzdWv0u-dCmCV5vT-11" style="edgeStyle=none;rounded=0;orthogonalLoop=1;jettySize=auto;html=1;exitX=0.5;exitY=0;exitDx=0;exitDy=0;exitPerimeter=0;" edge="1" parent="1" source="pluuzzdWv0u-dCmCV5vT-6" target="pluuzzdWv0u-dCmCV5vT-10">
          <mxGeometry relative="1" as="geometry" />
        </mxCell>
        <mxCell id="pluuzzdWv0u-dCmCV5vT-6" value="nginx" style="shape=mxgraph.cisco.servers.fileserver;sketch=0;html=1;pointerEvents=1;dashed=0;fillColor=#036897;strokeColor=#ffffff;strokeWidth=2;verticalLabelPosition=bottom;verticalAlign=top;align=center;outlineConnect=0;" vertex="1" parent="1">
          <mxGeometry x="420" y="310" width="43" height="62" as="geometry" />
        </mxCell>
        <mxCell id="pluuzzdWv0u-dCmCV5vT-10" value="内网用户" style="shape=mxgraph.cisco.computers_and_peripherals.pc;sketch=0;html=1;pointerEvents=1;dashed=0;fillColor=#036897;strokeColor=#ffffff;strokeWidth=2;verticalLabelPosition=bottom;verticalAlign=top;align=center;outlineConnect=0;" vertex="1" parent="1">
          <mxGeometry x="220" y="190" width="78" height="70" as="geometry" />
        </mxCell>
      </root>
    </mxGraphModel>
  </diagram>
</mxfile>
